<?xml version="1.0" encoding="utf-8"?>
<!-- Generator: Adobe Illustrator 23.1.1, SVG Export Plug-In . SVG Version: 6.00 Build 0)  -->
<svg version="1.1" id="Livello_1" xmlns="http://www.w3.org/2000/svg" xmlns:xlink="http://www.w3.org/1999/xlink" x="0px" y="0px"
	 viewBox="0 0 1920 1080" style="enable-background:new 0 0 1920 1080;" xml:space="preserve">
<style type="text/css">
	.st0{fill:#88D0EF;}
	.st1{fill:url(#SVGID_1_);}
	.st2{fill:#3D97D3;}
	.st3{fill:#3DBFEC;}
	.st4{fill:#3C76BB;}
	.st5{fill:#F8C5C5;}
	.st6{fill:#E6A1A1;}
	.st7{fill:#EA4B6F;}
	.st8{fill:#E23861;}
	.st9{fill:none;}
	.st10{fill:#FFD112;}
	.st11{font-family:'ArialMT';}
	.st12{font-size:140px;}
	.st13{fill:#FFFAED;}
	.st14{font-size:68px;}
	.st15{letter-spacing:8;}
	.st16{letter-spacing:4;}
</style>
<g>
	<path class="st0" d="M1889.6,463.1v230.4c0,40.7-32.8,73.7-73.3,74.1C1866.4,766.1,1884.1,612.3,1889.6,463.1z"/>
	
		<linearGradient id="SVGID_1_" gradientUnits="userSpaceOnUse" x1="963.525" y1="312.36" x2="963.525" y2="957.82" gradientTransform="matrix(1 0 0 -1 0 1080)">
		<stop  offset="0" style="stop-color:#315191"/>
		<stop  offset="0.8587" style="stop-color:#315191"/>
		<stop  offset="1" style="stop-color:#315191"/>
		<stop  offset="1" style="stop-color:#315191"/>
	</linearGradient>
	<path class="st1" d="M1888.4,183.3L1888.4,183.3c-10.9,67-101.1,584.3-271.9,584.3H112.8c-40.9,0-74.1-33.2-74.1-74.1V196.3
		c0-40.9,33.2-74.1,74.1-74.1h1702.7C1851.9,122.2,1882.3,148.6,1888.4,183.3z"/>
	<path class="st2" d="M1888.7,186.3c-0.6,26.5-14.3,581.4-113.4,581.4h-58.1C1834.4,767.6,1882.1,264.1,1888.7,186.3z"/>
	<path class="st3" d="M1889.6,207.7v255.4c-5.4,149.1-23.2,303-73.3,304.5c-0.2,0-0.5,0-0.8,0h-40.1c99.1,0,112.8-554.9,113.4-581.4
		v0c0-0.1,0-0.2,0-0.4C1888.8,188,1889.2,195.6,1889.6,207.7z"/>
	<path class="st4" d="M1888.7,185.3C1888.7,185.3,1888.7,185.3,1888.7,185.3c0,0.1,0,0.4,0,0.9v0c-6.7,77.9-54.3,581.4-171.5,581.4
		h-100.7c170.7,0,260.9-517.4,271.9-584.3C1888.5,184,1888.6,184.6,1888.7,185.3z"/>
</g>
<g>
	<path class="st5" d="M424.5,464.4v104.5c0,37.1-19,70.5-48.8,90.5c-25.6,17.2-40.6,46-40.6,76.3v31.9H155.5v-91
		c-27.7-33.3-42.8-74.9-42.8-117.8V355c0-8.3,3.4-15.7,9-21.2c5.6-5.4,13.2-8.8,21.7-8.8c17,0,30.7,13.4,30.7,29.9v-60.6
		c0-8.3,3.4-15.7,9-21.2c5.6-5.4,13.2-8.8,21.7-8.8c17,0,30.7,13.4,30.7,29.9v-46.7c0-8.3,3.4-15.7,9-21.1
		c5.6-5.4,13.2-8.8,21.7-8.8c17,0,30.7,13.4,30.7,29.9v37.7c0-8.3,3.4-15.7,9-21.2c5.6-5.4,13.2-8.8,21.7-8.8
		c17,0,30.7,13.4,30.7,29.9v178.9c0-17.8,14.8-32.2,33.1-32.2c9.1,0,17.4,3.6,23.4,9.5C420.8,447.4,424.5,455.5,424.5,464.4z"/>
	<g>
		<path class="st6" d="M342.1,558.7c0,0-43.8,161.8-186.5,186.6v-68.7c-27.7-33.3-42.8-74.9-42.8-117.8V449.4l165.3,50.1
			L342.1,558.7z"/>
		<path class="st6" d="M369.6,412c48,6-185.3,59.7-256.8,59.6V355c0-8.3,3.4-15.7,9-21.2c5.6-5.4,13.2-8.8,21.7-8.8
			c17,0,30.7,13.4,30.7,29.9v-60.6c0-8.3,3.4-15.7,9-21.2c5.6-5.4,13.2-8.8,21.7-8.8c17,0,30.7,13.4,30.7,29.9v-46.7
			C235.5,247.8,247.1,396.6,369.6,412z"/>
		<path class="st6" d="M296.9,284.6c0,0,31.1,82.1,70,96.3s-59.5,42.9-59.5,42.9L297,385.1"/>
		<path class="st6" d="M414.8,441.6c0,0-56.5,26.7-56.5,90.3s-28.4-86.2-28.4-86.2l28.4-14.1v32.8c0-17.8,14.8-32.2,33.1-32.2
			C400.5,432.1,408.8,435.7,414.8,441.6z"/>
	</g>
	<path class="st7" d="M424,441c0,4.6-0.3,9.3-1,13.9c-1.6-5-4.5-9.6-8.2-13.2c-6-5.8-14.3-9.5-23.4-9.5c-2.1,0-4.3,0.2-6.3,0.6
		c-15.3,2.9-26.8,16-26.8,31.7v78.6l-16.2,15.8l-95,92.6c0,0,0,0,0,0l-94.9-92.5l-25.6-25l-10.1-9.8l-3.8-3.7L101,508.9l-3.7-3.6
		c-7.7-7.5-13.7-15.9-18.1-24.9c-6-12.2-9-25.5-9-38.8c0-0.2,0-0.4,0-0.6c0.2-22.8,9.2-45.6,27-63c4.8-4.7,10-8.7,15.4-12.1
		c18.4-11.6,40.2-16.1,61.2-13.6c0.1,0,0.1,0,0.1,0c19.7,2.4,38.7,11,53.8,25.7l7.6,7.4l11.6,11.3c0,0,0,0,0,0l19.2-18.7
		c9-8.8,19.4-15.4,30.6-19.8c19.6-7.7,41.3-8.7,61.4-2.8c14.1,4.1,27.5,11.7,38.7,22.5l0,0C414.8,395.3,423.8,418.1,424,441z"/>
	<g>
		<path class="st8" d="M247.1,651.3c0,0,66.7-83.6,111.2-163.4v55l-16.2,15.8L247.1,651.3z"/>
		<path class="st8" d="M424,441c0,4.6-0.3,9.3-1,13.9c-1.6-5-4.5-9.6-8.2-13.2c-6-5.8-14.3-9.5-23.4-9.5c-2.1,0-4.3,0.2-6.3,0.6
			c8.3-21,12.9-40,11.9-54.8C414.8,395.3,423.8,418.1,424,441z"/>
		<path class="st8" d="M122.7,413.7c-33,43.9-5.5,100.5,31.9,147.4l-2.4-2.4l-25.6-25l-10.1-9.8l-3.8-3.7L101,508.8l-3.7-3.6
			c-7.7-7.5-13.7-15.9-18.1-24.9c-6-12.2-9-25.5-9-38.8c0-0.2,0-0.4,0-0.6c0.2-22.8,9.2-45.6,27-63c4.8-4.7,10-8.7,15.4-12.1
			c18.4-11.6,40.2-16.1,61.2-13.6c0.1,0,0.1,0,0.1,0c19.7,2.4,38.7,11,53.8,25.7l7.6,7.4l11.6,11.3
			C245.7,395.8,170.1,350.6,122.7,413.7z"/>
	</g>
</g>
<rect x="425.2" y="192.2" class="st9" width="1410" height="114"/>
<text transform="matrix(1 0 0 1 372.31 284.6976)" class="st10 st11 st12">FAI UNA DONAZIONE!</text>
<rect x="455.7" y="343.1" class="st9" width="1282.7" height="215.4"/>
<text transform="matrix(1 0 0 1 455.6857 387.85)" class="st13 st11 st14">Caricando</text>
<text transform="matrix(1 0 0 1 759.6357 387.85)" class="st13 st11 st14 st15"> </text>
<text transform="matrix(1 0 0 1 782.3457 387.85)" class="st13 st11 st14">il</text>
<text transform="matrix(1 0 0 1 818.2557 387.85)" class="st13 st11 st14 st15"> </text>
<text transform="matrix(1 0 0 1 840.9657 387.85)" class="st13 st11 st14">tuo</text>
<text transform="matrix(1 0 0 1 944.3857 387.85)" class="st13 st11 st14 st15"> </text>
<text transform="matrix(1 0 0 1 967.1057 387.85)" class="st13 st11 st14">disegno,</text>
<text transform="matrix(1 0 0 1 1219.7856 387.85)" class="st13 st11 st14 st15"> </text>
<text transform="matrix(1 0 0 1 1242.4957 387.85)" class="st13 st11 st14">puoi</text>
<text transform="matrix(1 0 0 1 1376.0457 387.85)" class="st13 st11 st14 st15"> </text>
<text transform="matrix(1 0 0 1 1398.7557 387.85)" class="st13 st11 st14">contribuire </text>
<text transform="matrix(1 0 0 1 455.6857 469.45)" class="st13 st11 st14">ad</text>
<text transform="matrix(1 0 0 1 529.7357 469.45)" class="st13 st11 st14 st16"> </text>
<text transform="matrix(1 0 0 1 549.1357 469.45)" class="st13 st11 st14">aiutare</text>
<text transform="matrix(1 0 0 1 765.9157 469.45)" class="st13 st11 st14 st16"> </text>
<text transform="matrix(1 0 0 1 785.3157 469.45)" class="st13 st11 st14">la</text>
<text transform="matrix(1 0 0 1 838.8957 469.45)" class="st13 st11 st14 st16"> </text>
<text transform="matrix(1 0 0 1 858.2957 469.45)" class="st13 st11 st14">Croce</text>
<text transform="matrix(1 0 0 1 1032.6458 469.45)" class="st13 st11 st14 st16"> </text>
<text transform="matrix(1 0 0 1 1052.0457 469.45)" class="st13 st11 st14">Rossa</text>
<text transform="matrix(1 0 0 1 1230.9457 469.45)" class="st13 st11 st14 st16"> </text>
<text transform="matrix(1 0 0 1 1250.3457 469.45)" class="st13 st11 st14">Italiana</text>
<text transform="matrix(1 0 0 1 1476.7758 469.45)" class="st13 st11 st14 st16"> </text>
<text transform="matrix(1 0 0 1 1496.1757 469.45)" class="st13 st11 st14">con</text>
<text transform="matrix(1 0 0 1 1606.4056 469.45)" class="st13 st11 st14 st16"> </text>
<text transform="matrix(1 0 0 1 1625.8057 469.45)" class="st13 st11 st14">una </text>
<text transform="matrix(1 0 0 1 825.4257 551.05)" class="st13 st11 st14">piccola donazione</text>
</svg>
